<?xml version="1.0" encoding="UTF-8" standalone="no"?>
<svg
   xmlns:dc="http://purl.org/dc/elements/1.1/"
   xmlns:cc="http://creativecommons.org/ns#"
   xmlns:rdf="http://www.w3.org/1999/02/22-rdf-syntax-ns#"
   xmlns:svg="http://www.w3.org/2000/svg"
   xmlns="http://www.w3.org/2000/svg"
   xmlns:sodipodi="http://sodipodi.sourceforge.net/DTD/sodipodi-0.dtd"
   xmlns:inkscape="http://www.inkscape.org/namespaces/inkscape"
   width="1024"
   height="1024"
   viewBox="0 0 1024 1293.4737"
   preserveAspectRatio="xMinYMin meet"
   version="1.1"
   id="svg8210"
   inkscape:version="0.91+devel+osxmenu r12922"
   sodipodi:docname="icon.svg"
   inkscape:export-filename="/Users/saschwarz/dev/ionic-intro/agility-course-scrambler/resources/icon.png"
   inkscape:export-xdpi="96"
   inkscape:export-ydpi="96"
   enable-background="new">
  <sodipodi:namedview
     pagecolor="#ffffff"
     bordercolor="#666666"
     borderopacity="1"
     objecttolerance="10"
     gridtolerance="10"
     guidetolerance="10"
     inkscape:pageopacity="1"
     inkscape:pageshadow="2"
     inkscape:window-width="1680"
     inkscape:window-height="942"
     id="namedview8294"
     showgrid="false"
     inkscape:zoom="0.74316406"
     inkscape:cx="512"
     inkscape:cy="512"
     inkscape:window-x="0"
     inkscape:window-y="23"
     inkscape:window-maximized="0"
     inkscape:current-layer="layer1"
     showborder="false" />
  <metadata
     id="metadata17">
    <rdf:RDF>
      <cc:Work
         rdf:about="">
        <dc:format>image/svg+xml</dc:format>
        <dc:type
           rdf:resource="http://purl.org/dc/dcmitype/StillImage" />
        <dc:title></dc:title>
      </cc:Work>
    </rdf:RDF>
  </metadata>
  <style
     type="text/css"
     id="style8213">
    text {font-family:Calibri,Carlito,sans-serif;font-weight:normal;font-style:normal;font-stretch:normal;font-variant:normal;font-size:24px;text-anchor:middle;text-align:center;writing-mode:lr;line-height:125%;vertical-align:center;}
  </style>
  <defs
     id="defs8215">
    <g
       transform="translate(-54,-2)"
       style="stroke:#000000;stroke-width:1.5;stroke-linecap:round"
       id="WingedSingleJump">
      <rect
         style="fill:#d3d3d3"
         height="4"
         width="30"
         y="0"
         x="0"
         id="rect8218" />
      <line
         y2="2"
         x2="78"
         y1="2"
         x1="30"
         id="line8220" />
      <rect
         style="fill:#d3d3d3"
         height="4"
         width="30"
         y="0"
         x="78"
         id="rect8222" />
    </g>
    <g
       transform="translate(-34,-34)"
       style="stroke:#f45d4c;stroke-width:1.5;stroke-linecap:round"
       id="Number12">
      <circle
         cx="34"
         cy="34"
         r="18"
         style="fill:none"
         id="circle8225" />
      <text
         x="34"
         y="42"
         id="Number12Text"
         sodipodi:linespacing="125%"
         style="font-style:normal;font-variant:normal;font-weight:normal;font-stretch:normal;font-size:24px;line-height:125%;font-family:Calibri, Carlito, sans-serif;text-align:center;writing-mode:lr-tb;text-anchor:middle">12</text>
    </g>
    <g
       transform="translate(-34,-34)"
       style="stroke:#f45d4c;stroke-width:1.5;stroke-linecap:round"
       id="Number9">
      <circle
         cx="34"
         cy="34"
         r="18"
         style="fill:none"
         id="circle8229" />
      <text
         x="34"
         y="42"
         id="Number9Text"
         sodipodi:linespacing="125%"
         style="font-style:normal;font-variant:normal;font-weight:normal;font-stretch:normal;font-size:24px;line-height:125%;font-family:Calibri, Carlito, sans-serif;text-align:center;writing-mode:lr-tb;text-anchor:middle">9</text>
    </g>
    <g
       transform="translate(-34,-34)"
       style="stroke:#f45d4c;stroke-width:1.5;stroke-linecap:round"
       id="Number2">
      <circle
         cx="34"
         cy="34"
         r="18"
         style="fill:none"
         id="circle8233" />
      <text
         x="34"
         y="42"
         id="Number2Text"
         sodipodi:linespacing="125%"
         style="font-style:normal;font-variant:normal;font-weight:normal;font-stretch:normal;font-size:24px;line-height:125%;font-family:Calibri, Carlito, sans-serif;text-align:center;writing-mode:lr-tb;text-anchor:middle">2</text>
    </g>
    <g
       transform="translate(-34,-34)"
       style="stroke:#f45d4c;stroke-width:1.5;stroke-linecap:round"
       id="Number7">
      <circle
         cx="34"
         cy="34"
         r="18"
         style="fill:none"
         id="circle8237" />
      <text
         x="34"
         y="42"
         id="Number7Text"
         sodipodi:linespacing="125%"
         style="font-style:normal;font-variant:normal;font-weight:normal;font-stretch:normal;font-size:24px;line-height:125%;font-family:Calibri, Carlito, sans-serif;text-align:center;writing-mode:lr-tb;text-anchor:middle">7</text>
    </g>
    <g
       transform="translate(-34,-34)"
       style="stroke:#f45d4c;stroke-width:1.5;stroke-linecap:round"
       id="Number1">
      <circle
         cx="34"
         cy="34"
         r="18"
         style="fill:none"
         id="circle8241" />
      <text
         x="34"
         y="42"
         id="Number1Text"
         sodipodi:linespacing="125%"
         style="font-style:normal;font-variant:normal;font-weight:normal;font-stretch:normal;font-size:24px;line-height:125%;font-family:Calibri, Carlito, sans-serif;text-align:center;writing-mode:lr-tb;text-anchor:middle">1</text>
    </g>
    <g
       transform="translate(-34,-34)"
       style="stroke:#f45d4c;stroke-width:1.5;stroke-linecap:round"
       id="Number11">
      <circle
         cx="34"
         cy="34"
         r="18"
         style="fill:none"
         id="circle8245" />
      <text
         x="34"
         y="42"
         id="Number11Text"
         sodipodi:linespacing="125%"
         style="font-style:normal;font-variant:normal;font-weight:normal;font-stretch:normal;font-size:24px;line-height:125%;font-family:Calibri, Carlito, sans-serif;text-align:center;writing-mode:lr-tb;text-anchor:middle">11</text>
    </g>
    <g
       transform="translate(-34,-34)"
       style="stroke:#f45d4c;stroke-width:1.5;stroke-linecap:round"
       id="Number10">
      <circle
         cx="34"
         cy="34"
         r="18"
         style="fill:none"
         id="circle8249" />
      <text
         x="34"
         y="42"
         id="Number10Text"
         sodipodi:linespacing="125%"
         style="font-style:normal;font-variant:normal;font-weight:normal;font-stretch:normal;font-size:24px;line-height:125%;font-family:Calibri, Carlito, sans-serif;text-align:center;writing-mode:lr-tb;text-anchor:middle">10</text>
    </g>
    <g
       transform="translate(-34,-34)"
       style="stroke:#f45d4c;stroke-width:1.5;stroke-linecap:round"
       id="Number3">
      <circle
         cx="34"
         cy="34"
         r="18"
         style="fill:none"
         id="circle8253" />
      <text
         x="34"
         y="42"
         id="Number3Text"
         sodipodi:linespacing="125%"
         style="font-style:normal;font-variant:normal;font-weight:normal;font-stretch:normal;font-size:24px;line-height:125%;font-family:Calibri, Carlito, sans-serif;text-align:center;writing-mode:lr-tb;text-anchor:middle">3</text>
    </g>
    <g
       transform="translate(-34,-34)"
       style="stroke:#f45d4c;stroke-width:1.5;stroke-linecap:round"
       id="Number5">
      <circle
         cx="34"
         cy="34"
         r="18"
         style="fill:none"
         id="circle8257" />
      <text
         x="34"
         y="42"
         id="Number5Text"
         sodipodi:linespacing="125%"
         style="font-style:normal;font-variant:normal;font-weight:normal;font-stretch:normal;font-size:24px;line-height:125%;font-family:Calibri, Carlito, sans-serif;text-align:center;writing-mode:lr-tb;text-anchor:middle">5</text>
    </g>
    <g
       transform="translate(-34,-34)"
       style="stroke:#f45d4c;stroke-width:1.5;stroke-linecap:round"
       id="Number6">
      <circle
         cx="34"
         cy="34"
         r="18"
         style="fill:none"
         id="circle8261" />
      <text
         x="34"
         y="42"
         id="Number6Text"
         sodipodi:linespacing="125%"
         style="font-style:normal;font-variant:normal;font-weight:normal;font-stretch:normal;font-size:24px;line-height:125%;font-family:Calibri, Carlito, sans-serif;text-align:center;writing-mode:lr-tb;text-anchor:middle">6</text>
    </g>
    <g
       transform="translate(-34,-34)"
       style="stroke:#f45d4c;stroke-width:1.5;stroke-linecap:round"
       id="Number4">
      <circle
         cx="34"
         cy="34"
         r="18"
         style="fill:none"
         id="circle8265" />
      <text
         x="34"
         y="42"
         id="Number4Text"
         sodipodi:linespacing="125%"
         style="font-style:normal;font-variant:normal;font-weight:normal;font-stretch:normal;font-size:24px;line-height:125%;font-family:Calibri, Carlito, sans-serif;text-align:center;writing-mode:lr-tb;text-anchor:middle">4</text>
    </g>
    <g
       transform="translate(-34,-34)"
       style="stroke:#f45d4c;stroke-width:1.5;stroke-linecap:round"
       id="Number8">
      <circle
         cx="34"
         cy="34"
         r="18"
         style="fill:none"
         id="circle8269" />
      <text
         x="34"
         y="42"
         id="Number8Text"
         sodipodi:linespacing="125%"
         style="font-style:normal;font-variant:normal;font-weight:normal;font-stretch:normal;font-size:24px;line-height:125%;font-family:Calibri, Carlito, sans-serif;text-align:center;writing-mode:lr-tb;text-anchor:middle">8</text>
    </g>
  </defs>
  <g
     inkscape:groupmode="layer"
     id="layer3"
     inkscape:label="background"
     style="display:none"
     transform="translate(0,-2157.4737)">
    <rect
       style="opacity:1;fill:#ffffff;fill-opacity:1;stroke:#faca66;stroke-width:5.05263186;stroke-linecap:square;stroke-linejoin:round;stroke-miterlimit:4;stroke-dasharray:none;stroke-dashoffset:0;stroke-opacity:1"
       id="rect17929"
       width="1515.7894"
       height="1515.7894"
       x="965.90247"
       y="947.76343" />
  </g>
  <g
     inkscape:groupmode="layer"
     id="layer2"
     inkscape:label="swirl"
     transform="translate(0,693.4737)"
     style="display:inline" />
  <g
     inkscape:groupmode="layer"
     id="layer1"
     inkscape:label="blender"
     transform="translate(0,693.4737)"
     style="display:inline;opacity:0.85">
    <g
       id="g18189"
       transform="matrix(1.3295723,0,0,1.3295723,-1647.4052,1246.6102)">
      <g
         style="opacity:0.56000001;fill:#a1dbb2;fill-opacity:0.94117647;stroke:#fee5ad;stroke-opacity:1"
         transform="matrix(9.5434958,0,0,8.7942315,1248.9994,-1336.1345)"
         id="g17715">
        <path
           inkscape:connector-curvature="0"
           id="path17717"
           d="m 67.4,62.1 c 8.88289,0.18388 16.09291,-7.169258 19.5,-14.8 2.074205,-4.843423 3.574821,-9.960947 4.2,-15.2 -1.406748,-4.725025 -2.75843,-10.375689 -7.244727,-13.111328 -4.383267,-1.435981 0.0426,5.745747 -0.770135,8.343417 0.980048,9.36127 -1.189888,20.193312 -9.268829,25.969278 C 66.495651,57.696816 55.386002,57.262253 50,50 c 1.933351,7.668558 9.981224,11.783439 17.4,12.1 z"
           style="fill:#a1dbb2;fill-opacity:0.94117647;stroke:#fee5ad;stroke-opacity:1" />
        <path
           inkscape:connector-curvature="0"
           id="path17719"
           d="M 70.9,46.4 C 77.383379,40.256943 77.134589,29.944075 74.3,22.1 72.350824,17.205783 69.782189,12.530004 66.5,8.4 62.189156,6.0245268 57.257963,2.9736679 52.154102,4.1890625 47.98471,6.2382835 56.21448,8.2053416 57.470984,10.614355 64.800806,16.555237 70.843796,25.776105 69.237207,35.579346 67.191529,43.841041 58.991947,51.315261 50.1,50 c 6.761986,4.061495 15.297208,1.364499 20.8,-3.6 z"
           style="fill:#a1dbb2;fill-opacity:0.94117647;stroke:#fee5ad;stroke-opacity:1" />
        <path
           inkscape:connector-curvature="0"
           id="path17721"
           d="M 50,50 C 58.667922,47.49161 62.864781,37.291929 61.355273,28.926514 58.622473,19.177931 49.03838,13.212682 39.687451,10.921362 35.739521,9.8851621 31.52091,8.6342416 27.618356,10.516864 23.265613,11.996229 18.243713,14.594905 17.2,19.5 c 10.270354,-2.88907 22.395706,-3.834281 31.459375,2.839063 6.674914,4.612652 8.523902,14.163636 5.857443,21.494338 -0.438458,1.911893 -4.155949,6.571258 -4.126974,5.433005 C 54.083932,41.39842 49.88699,31.781622 43.153418,27.023511 34.564907,21.971986 23.818651,24.469939 15.679239,29.22305 12.172901,31.323601 8.012885,33.160787 6.472998,37.248163 4.290983,41.464593 2.3305984,47.042573 5.2,51.4 10.356821,42.345416 17.892626,33.227255 28.712817,31.307837 c 8.100652,-1.897669 16.318365,3.573189 19.901587,10.614575 1.202781,1.794908 1.947014,7.691036 1.175049,7.377783 C 46.794639,40.876715 36.535877,36.808773 28.214453,38.729102 18.784018,41.678999 13.137461,50.960523 10.921362,60.112549 9.8794396,64.067754 8.6402218,68.291641 10.513537,72.204345 11.967281,76.502463 14.504253,81.557842 19.4,82.5 16.525513,72.226333 15.557351,60.105297 22.239063,51.040625 c 4.482595,-6.65357 13.818003,-8.191557 21.032031,-5.805176 2.104368,0.39311 7.00597,4.223908 6.024023,4.37041 -8.05137,-3.844667 -18.122502,0.577402 -22.64414,7.776172 -4.836329,9.184027 -1.746526,20.20558 3.435546,28.536914 1.880592,3.667165 4.542862,6.875541 8.550074,8.245624 3.512288,1.826016 9.884586,3.135758 12.384497,0.389728 C 41.831689,89.295346 32.703469,81.447261 31.075,70.389062 29.686286,62.590474 35.106241,54.979093 41.751685,51.460083 c 1.883676,-1.280708 7.68505,-1.996002 7.568237,-1.294849 -8.447761,2.648227 -12.539973,12.579818 -11.245752,20.834497 2.385873,9.51009 11.375697,15.630268 20.402392,18.075269 4.097748,0.975731 8.525124,3.045291 12.632764,1.073462 3.800622,-1.469035 8.865165,-2.958656 10.104981,-7.337647 -0.897542,-2.295227 -6.506711,0.973419 -9.337744,0.32356 C 62.476112,84.070519 51.636744,81.42657 46.20625,73.1 42.341765,65.803773 42.912558,55.183213 50,50 Z"
           style="fill:#a1dbb2;fill-opacity:0.94117647;stroke:#fee5ad;stroke-opacity:1" />
        <path
           inkscape:connector-curvature="0"
           id="path17723"
           d="m 53.6,70.9 c 6.143057,6.483379 16.455925,6.234589 24.3,3.4 4.877971,-1.942268 9.549977,-4.471839 13.7,-7.7 2.3604,-4.327249 5.423787,-9.263242 4.210937,-14.374609 -2.054199,-4.105774 -4.026546,4.023382 -6.425292,5.264874 C 83.452192,64.796527 74.170907,70.733073 64.420654,69.104712 56.167425,66.95927 48.65363,58.842119 50,49.9 c -4.031486,6.833502 -1.420255,15.438452 3.6,21 z"
           style="fill:#a1dbb2;fill-opacity:0.94117647;stroke:#fee5ad;stroke-opacity:1" />
      </g>
      <g
         style="fill:#f7a541;fill-opacity:1;stroke:#f7a541;stroke-width:0.17707051;stroke-miterlimit:4;stroke-dasharray:none;stroke-opacity:1"
         id="g17831"
         transform="matrix(20.44145,0,0,20.44145,1439.7697,-22355.935)">
        <path
           id="path17833"
           d="m 10.999448,1022.3622 c -0.276975,0 -0.499958,0.223 -0.499958,0.5 l 0,0.5879 c -3.3993461,0.5095 -5.9994902,3.4245 -5.9994902,6.9687 l 0,0.6661 c 0,1.8171 1.4600644,3.2773 3.2770654,3.2773 l 0.7225951,0 10.5362147,0 7.06776,0 c 0.773402,0 1.396365,-0.6152 1.396365,-1.3887 l 0,-6.334 c 0,-1.8171 -1.467876,-3.2773 -3.284877,-3.2773 l -9.715972,0 0,-0.5 c 0,-0.277 -0.222981,-0.5 -0.499958,-0.5 z m 1.49792,2.5019 a 0.99991507,0.99999996 0 0 1 0.999915,1.0001 0.99991507,0.99999996 0 0 1 -0.999915,1 0.99991507,0.99999996 0 0 1 -0.999915,-1 0.99991507,0.99999996 0 0 1 0.999915,-1.0001 z m 4.444935,0.015 0,0 5.720217,0 a 2.8344051,2.8346457 0 0 1 2.833744,2.836 l 0,2.1606 -8.553961,0 a 0.94480162,0.94488186 0 0 1 -0.945232,-0.9433 l 0,-3.1114 a 0.94480162,0.94488186 0 0 1 0.945232,-0.9453 z m 1.048739,6.4863 a 0.5000075,0.50004995 0 0 1 0.002,0 0.5000075,0.50004995 0 0 1 0.50191,0.5117 l 0,0.9824 a 0.5000075,0.50004995 0 1 1 -0.996009,0 l 0,-0.9824 a 0.5000075,0.50004995 0 0 1 0.441369,-0.5098 0.5000075,0.50004995 0 0 1 0.05077,0 z m 2.001783,0 a 0.5000075,0.50004995 0 0 1 0.501911,0.5117 l 0,0.9824 a 0.5000075,0.50004995 0 1 1 -0.99601,0 l 0,-0.9824 a 0.5000075,0.50004995 0 0 1 0.443322,-0.5098 0.5000075,0.50004995 0 0 1 0.05077,0 z m 1.999831,0.01 a 0.5000075,0.50004995 0 0 1 0.50191,0.5117 l 0,0.9825 a 0.5000075,0.50004995 0 1 1 -0.996009,0 l 0,-0.9825 a 0.5000075,0.50004995 0 0 1 0.443321,-0.5097 0.5000075,0.50004995 0 0 1 0.05077,0 z m 1.99983,0 a 0.5000075,0.50004995 0 0 1 0.50191,0.5117 l 0,0.9825 a 0.5000075,0.50004995 0 1 1 -0.996009,0 l 0,-0.9825 a 0.5000075,0.50004995 0 0 1 0.443321,-0.5097 0.5000075,0.50004995 0 0 1 0.05077,0 z"
           style="color:#000000;font-style:normal;font-variant:normal;font-weight:normal;font-stretch:normal;font-size:medium;line-height:normal;font-family:sans-serif;text-indent:0;text-align:start;text-decoration:none;text-decoration-line:none;text-decoration-style:solid;text-decoration-color:#000000;letter-spacing:normal;word-spacing:normal;text-transform:none;direction:ltr;writing-mode:lr-tb;baseline-shift:baseline;text-anchor:start;white-space:normal;clip-rule:nonzero;display:inline;overflow:visible;visibility:visible;opacity:1;isolation:auto;mix-blend-mode:normal;color-interpolation:sRGB;color-interpolation-filters:linearRGB;solid-color:#000000;solid-opacity:1;fill:#f7a541;fill-opacity:1;fill-rule:nonzero;stroke:#f7a541;stroke-width:0.17707051;stroke-linecap:round;stroke-linejoin:round;stroke-miterlimit:4;stroke-dasharray:none;stroke-dashoffset:0;stroke-opacity:1;color-rendering:auto;image-rendering:auto;shape-rendering:auto;text-rendering:auto;enable-background:accumulate"
           inkscape:connector-curvature="0" />
        <path
           id="path17835"
           d="m 8.9976648,1035.3622 -0.002,1.0547 c 0,0.2517 0.1995326,0.4433 0.4511338,0.4433 l 0.5546404,0 0,5.0059 c -1.0992744,0 -2.0017837,0.9006 -2.0017837,2 l 0,4.4961 c 0,1.0994 0.9025093,2 2.0017837,2 l 0.996009,0 c 1.099274,0 1.99983,-0.9006 1.99983,-2 l 0,-4.4961 c 0,-1.0994 -0.900556,-2 -1.99983,-2 l 0,-5.0059 5.003481,0 0,5.0059 c -1.099273,0 -1.99983,0.9006 -1.99983,2 l 0,4.4961 c 0,1.0994 0.900557,2 1.99983,2 l 0.99601,0 c 1.099321,0 2.00183,-0.9006 2.00183,-2 l 0,-4.4961 c 0,-1.0994 -0.902509,-2 -2.001783,-2 l 0,-5.0059 1.056551,0 c 0.251599,0 0.442854,-0.1916 0.443321,-0.4433 l 0.002,-1.0547 z m 1.0038212,7.5 0,6.5039 c -0.5626146,0 -1.0057741,-0.4412 -1.0057741,-1.0039 l 0,-4.4961 c 0,-0.5626 0.4431595,-1.0039 1.0057741,-1.0039 z m 0.996009,0 c 0.562614,0 1.003821,0.4413 1.003821,1.0039 l 0,4.4961 c 0,0.5627 -0.441207,1.0039 -1.003821,1.0039 z m 5.003481,0 0,6.5039 c -0.562614,0 -1.003821,-0.4412 -1.003821,-1.0039 l 0,-4.4961 c 0,-0.5626 0.441207,-1.0039 1.003821,-1.0039 z m 0.99601,0 c 0.562614,0 1.005773,0.4413 1.005773,1.0039 l 0,4.4961 c 0,0.5627 -0.443159,1.0039 -1.005773,1.0039 z"
           style="color:#000000;font-style:normal;font-variant:normal;font-weight:normal;font-stretch:normal;font-size:medium;line-height:normal;font-family:sans-serif;text-indent:0;text-align:start;text-decoration:none;text-decoration-line:none;text-decoration-style:solid;text-decoration-color:#000000;letter-spacing:normal;word-spacing:normal;text-transform:none;direction:ltr;writing-mode:lr-tb;baseline-shift:baseline;text-anchor:start;white-space:normal;clip-rule:nonzero;display:inline;overflow:visible;visibility:visible;opacity:1;isolation:auto;mix-blend-mode:normal;color-interpolation:sRGB;color-interpolation-filters:linearRGB;solid-color:#000000;solid-opacity:1;fill:#f7a541;fill-opacity:1;fill-rule:nonzero;stroke:#f7a541;stroke-width:0.17707051;stroke-linecap:round;stroke-linejoin:round;stroke-miterlimit:4;stroke-dasharray:none;stroke-dashoffset:0;stroke-opacity:1;color-rendering:auto;image-rendering:auto;shape-rendering:auto;text-rendering:auto;enable-background:accumulate"
           inkscape:connector-curvature="0" />
      </g>
    </g>
  </g>
</svg>
